<?xml version="1.0" standalone="no"?>
<!DOCTYPE svg PUBLIC "-//W3C//DTD SVG 20010904//EN"
 "http://www.w3.org/TR/2001/REC-SVG-20010904/DTD/svg10.dtd">
<svg version="1.0" xmlns="http://www.w3.org/2000/svg"
 width="690.000000pt" height="690.000000pt" viewBox="0 0 690.000000 690.000000"
 preserveAspectRatio="xMidYMid meet">

<g transform="translate(0.000000,690.000000) scale(0.100000,-0.100000)"
fill="#000000" stroke="none">
<path d="M0 3450 l0 -3450 3450 0 3450 0 0 3450 0 3450 -3450 0 -3450 0 0
-3450z m3320 2832 c0 -11 -109 -36 -117 -28 -9 9 58 35 90 36 15 0 27 -4 27
-8z m216 -82 c57 -25 111 -76 140 -131 13 -27 24 -51 24 -54 0 -3 -36 -5 -80
-5 -73 0 -80 2 -80 19 0 11 5 23 10 26 35 22 -14 115 -60 115 -19 0 -100 46
-100 57 0 10 107 -10 146 -27z m-129 -4 c27 -24 27 -24 9 -45 -21 -23 -24 -64
-6 -85 15 -19 76 -39 95 -32 8 3 15 4 15 2 0 -3 3 -11 6 -19 4 -11 -5 -16 -32
-22 -67 -12 -156 -65 -216 -127 -46 -48 -65 -61 -96 -65 -47 -6 -52 4 -52 113
0 127 63 268 130 291 59 20 115 16 147 -11z m-220 -34 c-9 -10 -29 -44 -44
-77 -26 -55 -28 -70 -28 -180 l-1 -120 -51 -11 -51 -12 -7 48 c-8 55 9 157 34
216 22 48 75 110 116 136 38 23 53 23 32 0z m-300 -58 c-13 -24 -32 -31 -263
-89 -137 -35 -241 -63 -231 -64 10 -1 115 15 233 35 118 20 216 35 219 32 2
-2 -11 -44 -29 -93 -19 -50 -30 -91 -26 -93 5 -2 39 6 75 17 37 12 71 21 76
21 5 0 9 -18 9 -40 0 -21 6 -59 14 -82 9 -27 14 -79 13 -138 -1 -79 2 -103 21
-144 12 -27 20 -51 17 -54 -6 -7 -688 -132 -693 -128 -10 10 14 59 32 66 11 5
122 30 246 56 124 25 227 49 230 52 3 2 -11 2 -30 -1 -78 -14 -433 -58 -436
-54 -2 2 20 69 50 148 29 79 57 155 61 168 l7 24 -403 -7 c-222 -3 -496 -8
-609 -11 -138 -4 -198 -2 -182 5 21 9 538 144 1192 312 370 95 414 105 418 97
2 -4 -3 -20 -11 -35z m1025 -71 c-20 -43 -38 -80 -39 -82 -1 -2 -29 6 -62 19
-51 19 -61 26 -66 52 -4 16 -5 32 -2 34 6 7 168 52 189 53 15 1 12 -11 -20
-76z m-197 -70 c27 -5 24 -7 -39 -30 -38 -14 -91 -39 -120 -57 -97 -63 -173
-96 -218 -96 -62 0 -73 11 -48 43 25 31 136 116 170 129 67 26 159 30 255 11z
m150 -84 c23 -11 31 -22 33 -46 3 -27 -2 -34 -27 -47 -16 -9 -46 -16 -65 -16
-33 0 -36 3 -48 43 l-13 42 -3 -70 c-4 -110 -6 -115 -53 -115 -55 0 -109 -24
-109 -49 0 -10 9 -48 20 -83 11 -34 20 -66 20 -70 0 -4 -20 -21 -45 -39 -25
-18 -44 -34 -42 -36 8 -7 127 20 137 32 8 9 5 27 -10 65 l-20 51 27 -3 c25 -3
29 -8 35 -48 12 -83 -53 -307 -98 -336 -28 -19 -139 -22 -199 -5 -22 6 -62 24
-89 41 l-49 31 31 -39 c55 -69 158 -158 205 -178 38 -15 50 -27 69 -68 l22
-48 -29 -24 c-99 -80 -347 -76 -482 8 -42 25 -42 23 5 314 l38 231 -37 42
c-50 56 -58 95 -28 127 29 31 74 32 90 2 6 -12 14 -44 18 -72 6 -49 7 -51 39
-54 l32 -3 0 139 0 140 74 4 c67 3 83 8 197 67 68 36 142 70 164 78 49 16 150
12 190 -8z m700 -99 c4 -6 13 -5 25 2 15 10 27 10 49 1 16 -6 40 -9 53 -6 51
10 78 -73 64 -191 -6 -46 -11 -56 -26 -56 -14 0 -22 11 -30 43 -21 83 -29 86
-29 9 -1 -68 -3 -73 -27 -84 -23 -11 -29 -10 -45 11 -15 18 -19 40 -19 94 0
101 -18 73 -22 -33 -3 -84 -3 -85 -30 -88 -40 -5 -58 29 -59 113 -1 84 -16 53
-18 -36 -1 -59 -13 -75 -46 -63 -22 9 -29 47 -22 135 9 111 38 159 88 144 9
-3 20 -1 24 5 8 13 62 13 70 0z m-781 -88 c-20 -48 -24 -51 -24 -14 0 42 9 62
26 55 11 -4 11 -10 -2 -41z m564 1 c-3 -15 -16 -19 -77 -21 -53 -2 -77 1 -82
10 -11 17 20 26 99 27 55 1 63 -1 60 -16z m-620 -65 c-3 -7 -22 -16 -44 -19
-21 -3 -45 -8 -53 -10 -24 -7 -24 21 1 30 36 15 100 13 96 -1z m1362 -7 c195
-6 211 -8 170 -19 -25 -7 -88 -24 -140 -38 -197 -53 -721 -218 -1278 -402
-149 -49 -274 -86 -277 -82 -2 4 13 14 35 23 24 9 47 28 58 46 19 34 14 33
432 156 124 37 227 70 230 72 6 7 6 7 -235 -45 -104 -23 -232 -51 -284 -62
-52 -11 -96 -18 -98 -16 -2 2 6 36 18 76 18 62 21 86 15 161 -11 140 -37 129
309 129 l295 0 0 -47 c0 -84 56 -142 108 -114 15 8 28 7 51 -5 29 -14 34 -14
57 0 16 11 35 15 57 11 24 -5 39 -1 59 14 16 13 29 17 33 11 11 -18 44 -10 60
14 9 14 19 49 22 79 l6 54 41 -4 c22 -2 138 -8 256 -12z m-1390 -46 c0 -8 -7
-15 -15 -15 -8 0 -15 7 -15 15 0 8 7 15 15 15 8 0 15 -7 15 -15z m1010 -275
l0 -70 -155 0 -155 0 0 24 c0 23 11 28 138 69 75 25 145 45 155 46 15 1 17 -9
17 -69z m-60 -150 l0 -30 -90 0 -90 0 0 30 0 30 90 0 90 0 0 -30z m37 -145 c7
-33 15 -84 19 -112 l6 -53 -45 0 c-63 0 -242 21 -257 30 -9 5 -10 33 -5 104
l7 97 132 -3 131 -3 12 -60z m-944 -143 c32 -71 51 -141 67 -255 12 -79 10
-110 -6 -95 -3 3 -14 39 -24 79 -19 77 -26 56 -11 -33 4 -27 6 -50 3 -52 -11
-12 -32 9 -32 33 0 49 -57 290 -87 367 -4 10 4 14 30 14 32 0 36 -3 60 -58z
m228 3 c102 -35 171 -128 194 -263 7 -40 15 -75 18 -78 2 -3 7 23 11 56 7 57
9 61 29 54 39 -12 105 -63 148 -114 23 -28 44 -48 46 -47 2 2 -3 33 -12 68
-13 58 -21 249 -11 260 3 3 45 1 95 -5 l89 -9 6 -41 c3 -22 8 -94 12 -159 4
-65 10 -115 14 -110 4 4 15 73 24 153 17 143 28 179 46 150 35 -57 19 -386
-27 -554 l-16 -59 -116 6 c-120 7 -310 43 -371 71 -35 16 -34 16 50 11 46 -3
82 -3 79 0 -4 3 -44 18 -90 34 -72 24 -84 31 -87 52 -2 13 -8 42 -14 64 -11
39 -12 37 -23 -65 -16 -134 -40 -221 -76 -270 -35 -48 -76 -77 -90 -63 -6 6
-14 81 -20 168 -10 153 -9 160 11 187 25 34 26 88 2 119 -14 17 -21 49 -25
110 -6 76 -40 229 -62 283 -8 18 -5 19 56 13 35 -3 85 -13 110 -22z m-1045
-115 c62 -102 169 -328 161 -337 -3 -2 -31 37 -63 86 -32 50 -59 89 -61 88 -2
-2 11 -43 27 -92 17 -49 30 -94 30 -99 0 -6 -36 60 -80 147 -44 88 -100 190
-125 228 -25 38 -45 71 -45 74 0 6 42 13 69 11 19 -1 36 -22 87 -106z m149 27
c45 -15 95 -21 200 -25 120 -3 152 -1 225 18 128 32 121 33 141 -32 10 -31 22
-96 28 -145 8 -79 7 -89 -10 -111 -24 -31 -24 -80 0 -106 21 -23 36 -76 22
-76 -4 0 -62 -9 -127 -20 -168 -28 -312 -50 -324 -50 -13 0 -13 26 2 66 15 43
-5 92 -44 109 -24 10 -37 30 -74 115 -24 56 -44 105 -44 109 0 3 55 7 123 8
99 2 270 23 283 35 1 2 -68 3 -154 3 -200 0 -269 17 -313 78 -33 46 -37 62
-11 52 9 -4 44 -17 77 -28z m-317 -30 c37 -40 118 -183 155 -274 29 -72 34
-97 30 -138 -5 -44 -2 -55 22 -83 24 -29 27 -43 39 -172 7 -78 10 -143 7 -144
-3 -2 -15 0 -26 4 -18 6 -19 15 -16 123 3 137 -13 202 -60 242 -55 45 -123 27
-149 -40 -5 -13 -12 -80 -16 -150 -7 -118 -8 -127 -32 -145 -35 -28 -96 -26
-156 5 -57 29 -136 33 -210 11 -44 -13 -47 -13 -61 7 -18 25 -20 101 -4 146
l11 33 32 -30 c36 -35 104 -82 118 -82 5 0 -7 23 -27 50 -55 75 -85 168 -85
265 0 231 86 333 320 380 88 18 84 18 108 -8z m1112 -302 c6 -8 9 -23 5 -35
-6 -20 -38 -26 -134 -23 -42 1 -65 27 -50 54 8 16 22 19 88 19 56 0 82 -4 91
-15z m-681 -103 c16 -30 -4 -46 -84 -63 -74 -16 -78 -16 -96 2 -34 34 -20 51
51 67 75 16 118 14 129 -6z m643 -204 c3 -200 5 -216 27 -261 13 -26 44 -64
69 -85 l45 -36 -6 -71 c-8 -100 -33 -174 -71 -210 -68 -64 -278 -143 -441
-165 -117 -16 -346 -2 -371 23 -3 2 5 23 16 45 15 29 21 56 19 89 -2 33 3 57
15 75 25 39 32 101 13 117 -14 11 -13 17 4 54 10 23 19 49 19 57 0 40 -26 98
-57 128 -35 32 -36 35 -44 140 -4 59 -8 126 -8 149 -1 44 0 45 66 58 30 6 31
5 38 -35 4 -23 12 -43 18 -45 7 -2 136 17 287 43 l275 47 3 48 3 47 39 0 38 0
4 -212z m-943 111 c28 -31 45 -111 38 -188 -8 -100 -9 -101 -79 -101 l-61 0 7
53 c3 28 9 88 12 132 8 117 10 125 39 125 13 0 33 -9 44 -21z m-654 -316 c-40
-92 -47 -130 -43 -235 3 -59 1 -105 -3 -102 -17 10 -42 113 -42 169 2 92 42
185 81 185 10 0 12 -5 7 -17z m229 -9 c13 -5 8 -14 -23 -46 -46 -45 -68 -103
-76 -198 l-5 -65 23 70 c32 96 49 125 96 168 41 37 81 54 100 43 5 -4 -5 -31
-25 -64 -51 -84 -68 -151 -68 -268 l0 -101 -36 9 c-19 5 -63 18 -96 29 -84 27
-99 60 -98 209 0 125 15 177 52 191 56 22 131 33 156 23z m341 -54 c55 -38
113 -49 200 -39 55 7 74 6 92 -6 49 -33 37 -105 -22 -134 -38 -18 -165 -17
-235 2 -30 9 -57 14 -59 12 -2 -2 18 -17 44 -34 67 -42 126 -53 198 -36 33 8
65 11 73 8 21 -8 17 -47 -8 -71 -58 -53 -156 -56 -303 -7 -15 5 -11 -1 12 -24
43 -40 100 -55 188 -46 59 5 74 4 85 -10 10 -12 11 -24 4 -43 -22 -63 -109
-68 -284 -16 l-25 7 20 -22 c45 -52 133 -78 203 -63 37 9 43 8 40 -5 -2 -9
-16 -25 -31 -37 -25 -18 -42 -21 -130 -21 -92 0 -106 2 -140 25 -72 48 -95
144 -77 323 15 146 59 266 98 267 7 0 33 -14 57 -30z m-201 -105 c-7 -38 -13
-116 -14 -172 0 -91 -2 -103 -19 -113 -28 -15 -28 -15 -35 43 -10 78 9 188 45
258 17 34 32 59 34 58 1 -2 -3 -35 -11 -74z m-1244 -865 l0 -60 -88 0 c-119 0
-132 -10 -132 -96 l0 -64 90 0 90 0 0 -60 0 -60 -90 0 -90 0 0 -90 0 -90 120
0 120 0 0 -60 0 -60 -187 2 -188 3 -3 297 -2 297 71 51 72 50 109 0 108 0 0
-60z m828 -2 l3 -58 -93 0 c-120 -1 -128 -6 -128 -94 l0 -66 85 0 85 0 0 -60
0 -60 -85 0 -85 0 0 -90 0 -90 115 0 115 0 0 -60 0 -60 -185 0 -185 0 0 303 0
302 68 47 67 47 110 -2 110 -2 3 -57z m317 43 c47 -21 125 -102 144 -149 8
-18 12 -34 10 -35 -2 -2 -27 -19 -56 -39 l-51 -37 -12 30 c-21 51 -69 109 -89
109 -11 0 -29 -12 -40 -26 -19 -25 -21 -40 -21 -190 l0 -164 28 -31 c24 -27
31 -30 49 -20 12 6 36 33 54 61 18 27 34 50 37 50 9 0 102 -72 102 -79 0 -16
-60 -98 -87 -117 -47 -35 -90 -54 -122 -54 -37 0 -122 66 -166 129 -30 42 -30
45 -33 189 -5 202 -1 224 56 285 55 59 119 107 141 107 9 0 34 -9 56 -19z
m829 -5 c62 35 83 28 167 -54 64 -63 69 -71 69 -110 0 -47 -17 -87 -49 -116
-27 -25 -26 -37 5 -67 41 -38 53 -77 60 -208 l7 -121 -75 0 -75 0 -6 108 c-3
59 -11 122 -18 140 -10 30 -14 32 -60 32 l-49 0 0 -140 0 -140 -70 0 -69 0 -3
273 c-3 268 -3 272 -27 305 -26 38 -26 38 45 87 l49 33 26 -24 26 -24 47 26z
m823 3 c49 -24 126 -105 142 -149 10 -29 8 -32 -37 -65 -50 -36 -72 -43 -72
-22 0 7 -16 36 -36 65 -40 61 -64 65 -98 19 -19 -26 -21 -42 -21 -185 0 -135
3 -161 18 -184 10 -14 25 -29 34 -32 20 -8 76 44 94 85 6 16 14 29 18 29 3 0
29 -16 58 -35 62 -41 61 -53 -5 -126 -50 -56 -106 -89 -150 -89 -49 0 -169
104 -192 166 -6 14 -10 101 -10 193 l0 168 30 44 c40 61 134 138 169 139 8 0
34 -9 58 -21z m719 8 c46 -27 106 -84 134 -126 l30 -44 0 -259 0 -258 -65 0
-64 0 -3 73 -3 72 -65 0 -65 0 -3 -72 -3 -73 -64 0 -65 0 0 265 0 264 43 52
c45 56 129 119 156 119 9 -1 25 -6 37 -13z m441 -18 c26 17 51 31 57 31 20 0
74 -38 126 -88 l50 -48 0 -282 0 -282 -70 0 -70 0 0 260 0 261 -25 25 c-19 19
-29 23 -43 15 -44 -23 -45 -30 -46 -299 l-1 -257 -67 -3 -66 -3 -4 263 -3 263
-27 46 -27 46 57 41 57 41 28 -30 28 -30 46 30z m-3767 -264 l0 -285 110 0
110 0 0 -60 0 -60 -180 0 -180 0 0 338 c0 186 3 342 7 345 3 4 35 7 70 7 l63
0 0 -285z m1548 223 l3 -58 -66 0 -65 0 0 -285 0 -285 -70 0 -70 0 0 285 0
285 -65 0 -65 0 0 53 c0 30 3 57 7 61 4 3 93 5 197 4 l191 -3 3 -57z m722
-283 l0 -345 -70 0 -70 0 0 338 c0 186 3 342 7 345 3 4 35 7 70 7 l63 0 0
-345z m710 0 l0 -345 -65 0 -65 0 0 345 0 345 65 0 65 0 0 -345z m-1041 -582
c13 -25 -5 -53 -34 -53 -15 0 -26 7 -30 20 -13 41 43 70 64 33z m-969 -18 c33
-17 35 -23 18 -60 -16 -35 -36 -31 -40 7 -2 25 -9 35 -31 42 -39 14 -62 -2
-62 -45 0 -30 5 -37 50 -61 28 -15 60 -39 73 -53 66 -77 -27 -169 -138 -136
-53 16 -66 33 -50 71 16 38 40 40 40 2 0 -36 17 -52 55 -52 37 0 55 16 55 47
0 17 -15 31 -62 58 -75 45 -87 59 -88 108 0 57 34 87 100 87 28 0 64 -7 80
-15z m1679 -69 c6 -7 9 -21 5 -30 -4 -10 6 -30 30 -56 42 -46 46 -84 16 -123
-28 -35 -81 -45 -127 -23 -19 9 -31 21 -28 26 4 7 13 6 26 -1 26 -14 58 -3 70
25 8 17 6 33 -6 62 l-16 39 -34 -40 c-43 -51 -55 -40 -20 19 15 26 25 55 22
65 -10 41 36 69 62 37z m-1291 -12 c9 -17 22 -16 94 1 l27 7 3 -98 3 -99 28 0
c35 1 34 -11 -3 -30 -39 -20 -56 -19 -80 5 -16 16 -20 33 -20 96 0 72 -1 75
-22 72 -15 -2 -24 -14 -32 -42 -16 -56 -39 -61 -30 -7 5 32 3 42 -9 47 -21 8
-30 34 -16 50 16 19 46 18 57 -2z m406 -6 c63 -96 -9 -242 -110 -223 -51 9
-64 36 -64 133 0 79 -1 82 -19 72 -13 -6 -22 -6 -26 -1 -9 16 33 32 73 29 l37
-3 5 -95 c5 -95 5 -95 32 -98 59 -7 95 125 38 138 -28 7 -38 34 -20 55 18 21
37 18 54 -7z m-522 -5 c48 -44 3 -123 -71 -123 -34 1 -35 1 -16 15 39 28 45
36 45 64 0 38 -27 48 -54 21 -29 -28 -30 -118 -2 -149 23 -25 41 -26 80 -6 34
18 36 18 36 5 0 -15 -62 -50 -88 -50 -68 0 -122 58 -122 130 0 34 6 48 34 76
30 30 40 34 87 34 35 0 59 -6 71 -17z m698 -83 l5 -95 28 0 c36 1 34 -11 -4
-31 -40 -20 -77 -11 -89 22 -6 14 -10 61 -10 105 0 77 -1 79 -20 69 -22 -12
-27 -1 -8 18 7 7 30 12 53 10 l40 -3 5 -95z m255 88 c51 -23 38 -100 -15 -83
-19 6 -21 12 -17 41 7 40 -11 46 -42 15 -28 -28 -36 -81 -18 -123 19 -44 47
-55 89 -34 34 18 47 14 29 -8 -20 -23 -69 -39 -104 -32 -99 19 -129 162 -45
220 27 19 87 21 123 4z m273 -4 c52 -36 8 -124 -63 -124 -19 0 -35 5 -35 10 0
6 5 10 12 10 37 0 63 65 34 89 -45 38 -87 -72 -54 -144 15 -33 48 -41 88 -20
40 21 53 10 20 -15 -35 -27 -74 -34 -115 -20 -48 16 -75 57 -75 115 0 40 5 52
34 81 29 29 41 34 83 34 28 0 58 -7 71 -16z m922 -89 l0 -55 -45 0 -45 0 0 55
0 55 45 0 45 0 0 -55z m-3220 -10 l0 -55 -45 0 -45 0 0 55 0 55 45 0 45 0 0
-55z m2978 13 c3 -37 3 -38 -32 -38 -34 0 -36 2 -36 33 0 41 7 49 40 45 21 -3
25 -9 28 -40z m112 -3 l0 -45 -40 0 -40 0 0 45 0 45 40 0 40 0 0 -45z m250 0
l0 -45 -40 0 -40 0 0 45 0 45 40 0 40 0 0 -45z m98 3 c3 -37 3 -38 -32 -38
-34 0 -36 2 -36 33 0 41 7 49 40 45 21 -3 25 -9 28 -40z m-3680 -10 c3 -37 3
-38 -32 -38 -34 0 -36 2 -36 33 0 41 7 49 40 45 21 -3 25 -9 28 -40z m112 -3
l0 -45 -40 0 -40 0 0 45 0 45 40 0 40 0 0 -45z m250 0 l0 -45 -40 0 -40 0 0
45 0 45 40 0 40 0 0 -45z m98 3 c3 -37 3 -38 -32 -38 -34 0 -36 2 -36 33 0 41
7 49 40 45 21 -3 25 -9 28 -40z m2580 9 c3 -23 0 -27 -22 -27 -21 0 -26 5 -26
23 0 13 3 27 7 31 15 14 38 0 41 -27z m80 1 c-2 -25 -8 -34 -25 -36 -20 -3
-23 1 -23 32 0 32 3 36 26 36 23 0 25 -3 22 -32z m642 -4 c0 -31 -3 -35 -22
-32 -18 2 -24 11 -26 36 -3 29 -1 32 22 32 23 0 26 -4 26 -36z m75 16 c8 -26
-1 -40 -26 -40 -13 0 -19 7 -19 23 0 40 34 53 45 17z m-4015 -26 c0 -19 -5
-24 -25 -24 -20 0 -25 5 -25 24 0 15 7 26 18 29 25 5 32 -1 32 -29z m78 4 c-2
-25 -8 -34 -25 -36 -20 -3 -23 1 -23 32 0 32 3 36 26 36 23 0 25 -3 22 -32z
m642 -4 c0 -31 -3 -35 -22 -32 -18 2 -24 11 -26 36 -3 29 -1 32 22 32 23 0 26
-4 26 -36z m75 16 c8 -26 -1 -40 -26 -40 -35 0 -23 55 13 59 4 1 9 -8 13 -19z
m2295 0 c0 -11 -7 -20 -15 -20 -8 0 -15 9 -15 20 0 11 7 20 15 20 8 0 15 -9
15 -20z m60 -6 c0 -33 -33 -30 -38 4 -3 17 2 22 17 22 16 0 21 -6 21 -26z
m928 4 c-5 -34 -38 -37 -38 -4 0 20 5 26 21 26 15 0 20 -5 17 -22z m52 2 c0
-11 -7 -20 -15 -20 -8 0 -15 9 -15 20 0 11 7 20 15 20 8 0 15 -9 15 -20z
m-4260 -10 c0 -11 -7 -20 -15 -20 -8 0 -15 9 -15 20 0 11 7 20 15 20 8 0 15
-9 15 -20z m60 -6 c0 -33 -33 -30 -38 4 -3 17 2 22 17 22 16 0 21 -6 21 -26z
m928 4 c-5 -34 -38 -37 -38 -4 0 20 5 26 21 26 15 0 20 -5 17 -22z m52 2 c0
-11 -7 -20 -15 -20 -8 0 -15 9 -15 20 0 11 7 20 15 20 8 0 15 -9 15 -20z
m2130 5 c0 -8 -7 -15 -15 -15 -8 0 -15 7 -15 15 0 8 7 15 15 15 8 0 15 -7 15
-15z m1140 0 c0 -8 -7 -15 -15 -15 -8 0 -15 7 -15 15 0 8 7 15 15 15 8 0 15
-7 15 -15z m-4360 -10 c0 -8 -7 -15 -15 -15 -8 0 -15 7 -15 15 0 8 7 15 15 15
8 0 15 -7 15 -15z m1140 0 c0 -8 -7 -15 -15 -15 -8 0 -15 7 -15 15 0 8 7 15
15 15 8 0 15 -7 15 -15z"/>
<path d="M2348 5943 c7 -3 16 -2 19 1 4 3 -2 6 -13 5 -11 0 -14 -3 -6 -6z"/>
<path d="M3405 5651 c-44 -11 -75 -30 -75 -46 0 -12 5 -12 35 1 19 7 60 14 90
14 48 0 56 3 53 18 -4 19 -52 26 -103 13z"/>
<path d="M3393 5589 c-18 -5 -33 -12 -33 -16 0 -14 46 -43 69 -43 34 0 48 10
60 43 10 26 10 27 -27 26 -20 0 -52 -5 -69 -10z m75 -21 c-7 -19 -38 -22 -38
-4 0 10 9 16 21 16 12 0 19 -5 17 -12z"/>
<path d="M3590 5316 c-48 -9 -51 -11 -22 -14 35 -4 37 -9 21 -45 -9 -19 -16
-22 -42 -19 -18 3 -44 13 -59 24 -29 20 -37 13 -15 -15 8 -11 34 -19 79 -23
l68 -7 21 48 c11 26 17 50 12 54 -4 4 -33 3 -63 -3z"/>
<path d="M2572 4649 c-62 -31 -129 -102 -144 -152 -6 -23 -12 -79 -12 -123 0
-72 4 -90 33 -149 18 -36 34 -65 36 -63 2 2 -1 39 -7 82 -21 150 25 311 112
390 46 41 42 45 -18 15z"/>
<path d="M3680 4054 c-14 -3 -106 -16 -204 -30 -98 -14 -195 -31 -215 -37
l-36 -12 3 -85 c6 -144 29 -480 33 -484 5 -6 319 41 427 63 l87 17 -2 195 c-2
107 -6 235 -10 284 -9 98 -11 101 -83 89z m20 -66 c-1 -31 -41 -97 -76 -126
-45 -37 -89 -52 -157 -52 -57 0 -95 18 -131 60 -49 59 -43 64 122 89 81 13
163 27 182 31 52 12 60 11 60 -2z m21 -277 l3 -175 -199 -36 c-110 -20 -203
-34 -207 -31 -5 5 -28 279 -28 337 0 8 18 2 51 -18 37 -24 65 -33 110 -36 94
-7 145 12 209 78 30 31 56 56 57 56 0 -1 3 -79 4 -175z"/>
<path d="M3340 2821 c-24 -6 -25 -11 -28 -84 -3 -77 -3 -77 23 -77 31 0 72 38
81 74 4 17 0 37 -13 58 -21 35 -28 39 -63 29z"/>
<path d="M4800 2785 c-23 -24 -25 -36 -29 -141 l-3 -114 72 0 73 0 -5 111 c-5
89 -10 116 -25 138 -27 35 -54 37 -83 6z"/>
</g>
</svg>
